<svg xmlns="http://www.w3.org/2000/svg" version="1.1" xmlns:xlink="http://www.w3.org/1999/xlink" xmlns:svgjs="http://svgjs.com/svgjs" width="1440" height="560" preserveAspectRatio="none" viewBox="0 0 1440 560"><g mask="url(&quot;#SvgjsMask1009&quot;)" fill="none"><rect width="1440" height="560" x="0" y="0" fill="url(#SvgjsLinearGradient1010)"></rect><path d="M1440 0L999.5799999999999 0L1440 127.89z" fill="rgba(255, 255, 255, .1)"></path><path d="M999.5799999999999 0L1440 127.89L1440 310.17L995.5699999999999 0z" fill="rgba(255, 255, 255, .075)"></path><path d="M995.5699999999999 0L1440 310.17L1440 462.8L711.5699999999999 0z" fill="rgba(255, 255, 255, .05)"></path><path d="M711.5699999999999 0L1440 462.8L1440 481.18L425.3299999999999 0z" fill="rgba(255, 255, 255, .025)"></path><path d="M0 560L559.08 560L0 545.32z" fill="rgba(0, 0, 0, .1)"></path><path d="M0 545.32L559.08 560L1045.49 560L0 503.93000000000006z" fill="rgba(0, 0, 0, .075)"></path><path d="M0 503.93L1045.49 560L1121.89 560L0 369.19z" fill="rgba(0, 0, 0, .05)"></path><path d="M0 369.19L1121.89 560L1174.14 560L0 337.72z" fill="rgba(0, 0, 0, .025)"></path></g><defs><mask id="SvgjsMask1009"><rect width="1440" height="560" fill="#ffffff"></rect></mask><linearGradient x1="15.28%" y1="-39.29%" x2="84.72%" y2="139.29%" gradientUnits="userSpaceOnUse" id="SvgjsLinearGradient1010"><stop stop-color="#0e2a47" offset="0"></stop><stop stop-color="rgba(130, 97, 238, 1)" offset="1"></stop></linearGradient></defs></svg>